<svg width="1000" height="200" viewBox="0 0 1000 200" fill="none" xmlns="http://www.w3.org/2000/svg">
  <g opacity="0.3">
    <path d="M50 100C50 70 70 50 100 50C130 50 150 70 150 100C150 130 130 150 100 150C70 150 50 130 50 100Z" fill="#10B981"/>
    <path d="M100 50C100 50 120 80 100 100C80 120 50 100 50 100C50 100 80 80 100 50Z" fill="#059669"/>
    <path d="M100 150C100 150 120 120 100 100C80 80 50 100 50 100C50 100 80 120 100 150Z" fill="#059669"/>
    <path d="M150 100C150 100 120 120 100 100C80 80 100 50 100 50C100 50 120 80 150 100Z" fill="#059669"/>
    <path d="M150 100C150 100 120 80 100 100C80 120 100 150 100 150C100 150 120 120 150 100Z" fill="#059669"/>
  </g>
  
  <g opacity="0.3" transform="translate(200, 0)">
    <path d="M50 100C50 70 70 50 100 50C130 50 150 70 150 100C150 130 130 150 100 150C70 150 50 130 50 100Z" fill="#10B981"/>
    <path d="M100 50C100 50 120 80 100 100C80 120 50 100 50 100C50 100 80 80 100 50Z" fill="#059669"/>
    <path d="M100 150C100 150 120 120 100 100C80 80 50 100 50 100C50 100 80 120 100 150Z" fill="#059669"/>
    <path d="M150 100C150 100 120 120 100 100C80 80 100 50 100 50C100 50 120 80 150 100Z" fill="#059669"/>
    <path d="M150 100C150 100 120 80 100 100C80 120 100 150 100 150C100 150 120 120 150 100Z" fill="#059669"/>
  </g>
  
  <g opacity="0.3" transform="translate(400, 0)">
    <path d="M50 100C50 70 70 50 100 50C130 50 150 70 150 100C150 130 130 150 100 150C70 150 50 130 50 100Z" fill="#10B981"/>
    <path d="M100 50C100 50 120 80 100 100C80 120 50 100 50 100C50 100 80 80 100 50Z" fill="#059669"/>
    <path d="M100 150C100 150 120 120 100 100C80 80 50 100 50 100C50 100 80 120 100 150Z" fill="#059669"/>
    <path d="M150 100C150 100 120 120 100 100C80 80 100 50 100 50C100 50 120 80 150 100Z" fill="#059669"/>
    <path d="M150 100C150 100 120 80 100 100C80 120 100 150 100 150C100 150 120 120 150 100Z" fill="#059669"/>
  </g>
  
  <g opacity="0.3" transform="translate(600, 0)">
    <path d="M50 100C50 70 70 50 100 50C130 50 150 70 150 100C150 130 130 150 100 150C70 150 50 130 50 100Z" fill="#10B981"/>
    <path d="M100 50C100 50 120 80 100 100C80 120 50 100 50 100C50 100 80 80 100 50Z" fill="#059669"/>
    <path d="M100 150C100 150 120 120 100 100C80 80 50 100 50 100C50 100 80 120 100 150Z" fill="#059669"/>
    <path d="M150 100C150 100 120 120 100 100C80 80 100 50 100 50C100 50 120 80 150 100Z" fill="#059669"/>
    <path d="M150 100C150 100 120 80 100 100C80 120 100 150 100 150C100 150 120 120 150 100Z" fill="#059669"/>
  </g>
  
  <g opacity="0.3" transform="translate(800, 0)">
    <path d="M50 100C50 70 70 50 100 50C130 50 150 70 150 100C150 130 130 150 100 150C70 150 50 130 50 100Z" fill="#10B981"/>
    <path d="M100 50C100 50 120 80 100 100C80 120 50 100 50 100C50 100 80 80 100 50Z" fill="#059669"/>
    <path d="M100 150C100 150 120 120 100 100C80 80 50 100 50 100C50 100 80 120 100 150Z" fill="#059669"/>
    <path d="M150 100C150 100 120 120 100 100C80 80 100 50 100 50C100 50 120 80 150 100Z" fill="#059669"/>
    <path d="M150 100C150 100 120 80 100 100C80 120 100 150 100 150C100 150 120 120 150 100Z" fill="#059669"/>
  </g>
</svg>
